<?xml version="1.0" encoding="UTF-8"?>
<svg version="1.1" xmlns="http://www.w3.org/2000/svg" width="500" height="500">
<path d="M0 0 C2.49698103 -0.00983985 4.99395567 -0.02143546 7.49092102 -0.03466797 C12.68719061 -0.0538391 17.88261839 -0.0472391 23.07885742 -0.02246094 C28.34368597 0.00046461 33.60621152 -0.01334571 38.87084961 -0.06347656 C94.01992622 -0.5872762 94.01992622 -0.5872762 118.30078125 10 C121.28386382 11.1586225 124.2772332 12.28676604 127.27272034 13.41282654 C168.09577168 29.17963277 206.90924236 58.0580401 232.98144531 93.22314453 C234.34146307 95.05478947 235.72227499 96.86940483 237.10546875 98.68359375 C243.47434222 107.11013712 249.13938851 115.78716864 254.30078125 125 C254.73390625 125.76521973 255.16703125 126.53043945 255.61328125 127.31884766 C261.15891476 137.20291534 266.03668439 147.20719304 270.05078125 157.8125 C270.37884766 158.67415771 270.70691406 159.53581543 271.04492188 160.42358398 C271.94736298 162.90329455 272.78615278 165.3967955 273.6063633 167.90464687 C274.10210656 169.40051431 274.60990498 170.89240867 275.12570763 172.38147831 C280.68232514 188.588716 282.33666017 203.22804738 282.1953125 220.2890625 C282.19749779 222.73554777 282.20191611 225.18203192 282.2084198 227.62850952 C282.21417103 232.71296353 282.19559664 237.79654278 282.15844727 242.88085938 C282.11292659 249.33328755 282.12561154 255.78402638 282.15625477 262.23649025 C282.1742153 267.27468077 282.16269783 272.31248861 282.14261436 277.35065842 C282.13618983 279.72721983 282.13805851 282.10382139 282.14911842 284.48036575 C282.1999247 300.26053373 280.24838552 314.00567288 275.30078125 329 C274.9336351 330.16618362 274.56648895 331.33236725 274.18821716 332.53388977 C273.39088412 335.02928 272.52777372 337.48287679 271.61328125 339.9375 C271.28497314 340.8253418 270.95666504 341.71318359 270.6184082 342.62792969 C254.58406817 384.83950258 226.34870694 424.50002417 190.30078125 452 C189.75905273 452.41813965 189.21732422 452.8362793 188.65917969 453.26708984 C159.59369973 475.60822292 127.44571346 490.09422615 92.30078125 500 C91.69068427 500.17424688 91.08058729 500.34849377 90.45200253 500.52802086 C88.12927252 501.03762911 86.0262991 501.14908593 83.64906311 501.18081665 C82.71784637 501.19519775 81.78662964 501.20957886 80.82719421 501.22439575 C79.30410393 501.24021194 79.30410393 501.24021194 77.75024414 501.25634766 C76.67458191 501.27095032 75.59891968 501.28555298 74.49066162 501.30059814 C63.82067169 501.43595849 53.1498515 501.5030923 42.47918898 501.55898631 C36.45290203 501.59131198 30.42792062 501.6463544 24.40209961 501.73388672 C-31.79664179 502.53037947 -31.79664179 502.53037947 -52.88154602 493.23648071 C-57.09631503 491.38691155 -61.40646722 489.79904819 -65.71051025 488.1708374 C-105.73493182 472.49112497 -143.61600151 444.23998306 -169.69921875 410 C-170.13331055 409.43168457 -170.56740234 408.86336914 -171.01464844 408.27783203 C-177.44023111 399.82205301 -183.34627352 391.18407899 -188.69921875 382 C-189.24425049 381.07018311 -189.24425049 381.07018311 -189.80029297 380.12158203 C-197.60221335 366.75684251 -204.02285371 353.22779039 -209.32421875 338.6875 C-209.68451172 337.70467041 -210.04480469 336.72184082 -210.41601562 335.70922852 C-211.56330917 332.48860418 -212.63082602 329.24768357 -213.69921875 326 C-214.12288727 324.78465073 -214.54655579 323.56930145 -214.98306274 322.31712341 C-219.34988801 308.9939881 -219.46568483 296.06393458 -219.43359375 282.1484375 C-219.44206917 279.67574653 -219.45171601 277.20305933 -219.46246338 274.7303772 C-219.47876042 269.57157276 -219.47623619 264.41319825 -219.4609375 259.25439453 C-219.44369784 252.71224642 -219.48076011 246.17171056 -219.53319931 239.62979698 C-219.56662529 234.52807175 -219.56682263 229.42672051 -219.55805206 224.32490921 C-219.55840692 221.91647329 -219.56937913 219.5080101 -219.59215546 217.09968185 C-219.73036349 200.24946359 -217.24466723 185.90302722 -211.69921875 170 C-211.11717981 168.27447047 -210.53590756 166.54868208 -209.95550537 164.82260132 C-194.87701601 120.17249458 -164.55916519 77.20985587 -126.42773438 49.27099609 C-124.61210442 47.9359439 -122.81932544 46.57362927 -121.02734375 45.20703125 C-112.600371 38.83220579 -103.92050776 33.1554425 -94.69921875 28 C-93.92868164 27.566875 -93.15814453 27.13375 -92.36425781 26.6875 C-63.23313789 10.468988 -33.50907827 -0.14283615 0 0 Z " fill="#000000" transform="translate(218.69921875,-1)"/>
<path d="M0 0 C121.44 0 242.88 0 368 0 C368 39.27 368 78.54 368 119 C246.56 119 125.12 119 0 119 C0 79.73 0 40.46 0 0 Z " fill="#020202" transform="translate(66,196)"/>
<path d="M0 0 C121.44 0 242.88 0 368 0 C368 39.27 368 78.54 368 119 C246.56 119 125.12 119 0 119 C0 79.73 0 40.46 0 0 Z M4 4 C4 40.63 4 77.26 4 115 C122.8 115 241.6 115 364 115 C364 78.37 364 41.74 364 4 C245.2 4 126.4 4 4 4 Z " fill="#FEFEFE" transform="translate(66,196)"/>
<path d="M0 0 C7.92 0 15.84 0 24 0 C24 19.47 24 38.94 24 59 C16.41 59 8.82 59 1 59 C0.77213542 55.77734375 0.54427083 52.5546875 0.31640625 49.33203125 C0.04596188 46.48401829 -0.37521747 43.78789518 -1 41 C-1.99 41 -2.98 41 -4 41 C-4.33 46.94 -4.66 52.88 -5 59 C-12.59 59 -20.18 59 -28 59 C-28 39.86 -28 20.72 -28 1 C-20.41 1 -12.82 1 -5 1 C-4.505 9.415 -4.505 9.415 -4 18 C-2.68 18.33 -1.36 18.66 0 19 C0 12.73 0 6.46 0 0 Z " fill="#FAFAFA" transform="translate(112,220)"/>
<path d="M0 0 C7.26 0 14.52 0 22 0 C22.495 7.92 22.495 7.92 23 16 C24.32 16.33 25.64 16.66 27 17 C27.33 11.39 27.66 5.78 28 0 C35.59 0 43.18 0 51 0 C51 19.14 51 38.28 51 58 C43.41 58 35.82 58 28 58 C27.5625 50.625 27.5625 50.625 27.43188477 48.30712891 C27.23790296 44.52818684 27.23790296 44.52818684 26 41 C25.34 41 24.68 41 24 41 C22.47943501 44.04112998 22.6258839 47.28197797 22.4375 50.625 C22.293125 53.05875 22.14875 55.4925 22 58 C14.74 58 7.48 58 0 58 C0 38.86 0 19.72 0 0 Z " fill="#FEFEFE" transform="translate(366,221)"/>
<path d="M0 0 C0.99 0 1.98 0 3 0 C3.06058594 1.05960938 3.12117188 2.11921875 3.18359375 3.2109375 C3.26800127 4.59897221 3.35264917 5.98699232 3.4375 7.375 C3.47681641 8.07367188 3.51613281 8.77234375 3.55664062 9.4921875 C3.74280134 13.37360492 3.74280134 13.37360492 5 17 C5.99 17 6.98 17 8 17 C8.33 11.39 8.66 5.78 9 0 C16.92 0 24.84 0 33 0 C33 19.14 33 38.28 33 58 C25.08 58 17.16 58 9 58 C8.67 52.72 8.34 47.44 8 42 C6.515 41.505 6.515 41.505 5 41 C4.67 46.61 4.34 52.22 4 58 C-3.59 58 -11.18 58 -19 58 C-18.15480752 52.08365261 -17.49789785 49.41496081 -14.83984375 44.41015625 C-14.53051407 43.82076767 -14.22118439 43.23137909 -13.90248108 42.62413025 C-12.92386806 40.7649215 -11.93103485 38.91376972 -10.9375 37.0625 C-10.26661833 35.79412699 -9.59668713 34.52525077 -8.92773438 33.25585938 C-7.29609608 30.16468283 -5.65162421 27.08055395 -4 24 C-6.97 23.67 -9.94 23.34 -13 23 C-4.93247588 6.06706477 -4.93247588 6.06706477 0 0 Z " fill="#F9F9F9" transform="translate(249,221)"/>
<path d="M0 0 C0.79056793 0.00424484 1.58113586 0.00848969 2.3956604 0.01286316 C4.9021519 0.02955574 7.40781711 0.06718892 9.9140625 0.10546875 C11.62108208 0.12052783 13.32811435 0.13421409 15.03515625 0.14648438 C19.20343975 0.17942819 23.37111139 0.23114382 27.5390625 0.29296875 C27.25467298 2.18990736 26.96122458 4.08548902 26.6640625 5.98046875 C26.50164062 7.03621094 26.33921875 8.09195313 26.171875 9.1796875 C25.5390625 12.29296875 25.5390625 12.29296875 23.5390625 17.29296875 C13.6390625 17.78796875 13.6390625 17.78796875 3.5390625 18.29296875 C3.2090625 19.61296875 2.8790625 20.93296875 2.5390625 22.29296875 C3.57546875 22.26976562 4.611875 22.2465625 5.6796875 22.22265625 C7.04947194 22.20389208 8.4192642 22.18569257 9.7890625 22.16796875 C10.47097656 22.15121094 11.15289062 22.13445312 11.85546875 22.1171875 C15.92443327 22.07768299 17.78805571 22.41746536 21.5390625 24.29296875 C20.8790625 27.59296875 20.2190625 30.89296875 19.5390625 34.29296875 C22.1790625 34.29296875 24.8190625 34.29296875 27.5390625 34.29296875 C27.62616539 37.39695853 27.67948559 40.50063423 27.7265625 43.60546875 C27.75169922 44.48654297 27.77683594 45.36761719 27.80273438 46.27539062 C27.81240234 47.12294922 27.82207031 47.97050781 27.83203125 48.84375 C27.8477417 49.62403564 27.86345215 50.40432129 27.87963867 51.20825195 C27.43870167 53.90729211 26.71351163 54.66057851 24.5390625 56.29296875 C20.42242108 58.45952738 16.87652078 58.52619886 12.26953125 58.48828125 C11.58852859 58.48545135 10.90752594 58.48262146 10.20588684 58.47970581 C8.04592795 58.468574 5.88639456 58.44348332 3.7265625 58.41796875 C2.25586539 58.40792986 0.78516174 58.3988056 -0.68554688 58.390625 C-4.27748036 58.36865788 -7.86916735 58.33417695 -11.4609375 58.29296875 C-11.96327723 55.83509219 -12.46290607 53.37671851 -12.9609375 50.91796875 C-13.17556641 49.86996094 -13.17556641 49.86996094 -13.39453125 48.80078125 C-14.4609375 43.51953125 -14.4609375 43.51953125 -14.4609375 41.29296875 C-4.0659375 40.79796875 -4.0659375 40.79796875 6.5390625 40.29296875 C6.5390625 38.97296875 6.5390625 37.65296875 6.5390625 36.29296875 C4.89357422 36.32777344 4.89357422 36.32777344 3.21484375 36.36328125 C1.7604235 36.38204796 0.30599586 36.40024719 -1.1484375 36.41796875 C-1.86966797 36.43472656 -2.59089844 36.45148438 -3.33398438 36.46875 C-7.50284868 36.50682182 -10.75409918 36.25986255 -14.4609375 34.29296875 C-17.66474647 31.08915978 -17.41162867 27.06170324 -18 22.6875 C-18.27305034 20.67664621 -18.58582307 18.66947287 -18.984375 16.6796875 C-19.74767946 12.51031691 -19.75254265 10.03966898 -17.3984375 6.41796875 C-12.92971306 0.50725974 -6.85941835 -0.14039905 0 0 Z " fill="#FAFAFA" transform="translate(198.4609375,220.70703125)"/>
<path d="M0 0 C11.55 0 23.1 0 35 0 C35.48210937 2.75988281 35.96421875 5.51976562 36.4609375 8.36328125 C36.93415507 11.0707351 37.40750126 13.77816643 37.88085938 16.4855957 C38.20683986 18.35048112 38.53268909 20.21538948 38.85839844 22.08032227 C39.17475888 23.89163139 39.49134533 25.70290105 39.8081665 27.51412964 C40.11734164 29.2828118 40.42573713 31.05163043 40.7333374 32.82058716 C41.64994362 38.07471166 42.61256022 43.31580176 43.68994141 48.53979492 C44.12611581 52.00068424 44 55.51173353 44 59 C34.1 59 24.2 59 14 59 C14 53.22209771 14.05676146 48.54152641 15 43 C17.97 42.505 17.97 42.505 21 42 C20.34 34.41 19.68 26.82 19 19 C18.01 19.33 17.02 19.66 16 20 C15.84180786 20.91942383 15.84180786 20.91942383 15.68041992 21.85742188 C13.54401611 34.2562147 11.36737595 46.64301492 9 59 C6.03 59 3.06 59 0 59 C0 39.53 0 20.06 0 0 Z " fill="#F7F7F7" transform="translate(139,220)"/>
<path d="M0 0 C11.22 0 22.44 0 34 0 C34.48210937 2.68769531 34.96421875 5.37539062 35.4609375 8.14453125 C35.93421414 10.7824762 36.40753472 13.42041327 36.88085938 16.05834961 C37.20675155 17.87474764 37.53259891 19.69115371 37.85839844 21.50756836 C38.17483414 23.27174591 38.49142161 25.03589625 38.8081665 26.80001831 C39.11742894 28.52457324 39.42582451 30.24928385 39.7333374 31.97415161 C40.66129926 37.16874142 41.63022086 42.35258952 42.68994141 47.5222168 C43.12379655 50.98930018 43 54.50587672 43 58 C33.1 58 23.2 58 13 58 C13 47 13 47 14 42 C16.97 41.505 16.97 41.505 20 41 C19.34 33.41 18.68 25.82 18 18 C17.01 18.33 16.02 18.66 15 19 C14.84180786 19.91942383 14.84180786 19.91942383 14.68041992 20.85742188 C12.54401611 33.2562147 10.36737595 45.64301492 8 58 C5.36 58 2.72 58 0 58 C0 38.86 0 19.72 0 0 Z " fill="#FBFBFB" transform="translate(285,221)"/>
<path d="M0 0 C1.40881444 0.02512267 2.8176722 0.04792883 4.2265625 0.06835938 C7.65150643 0.12700568 11.07589456 0.21667615 14.5 0.3125 C14.5 5.9225 14.5 11.5325 14.5 17.3125 C8.56 17.6425 2.62 17.9725 -3.5 18.3125 C-3.83 19.6325 -4.16 20.9525 -4.5 22.3125 C-3.54738281 22.28929687 -2.59476562 22.26609375 -1.61328125 22.2421875 C-0.35902344 22.22414062 0.89523437 22.20609375 2.1875 22.1875 C3.42886719 22.16429687 4.67023438 22.14109375 5.94921875 22.1171875 C9.5 22.3125 9.5 22.3125 14.5 24.3125 C14.5 35.2025 14.5 46.0925 14.5 57.3125 C11.68175808 58.72162096 9.32748718 58.42433553 6.1796875 58.41015625 C4.92285156 58.40693359 3.66601562 58.40371094 2.37109375 58.40039062 C1.05238281 58.39201172 -0.26632812 58.38363281 -1.625 58.375 C-2.96484211 58.36998489 -4.304686 58.36542201 -5.64453125 58.36132812 C-8.92973206 58.34951086 -12.21484397 58.33303617 -15.5 58.3125 C-16.00546036 56.23048472 -16.50416835 54.14682933 -17 52.0625 C-17.2784375 50.90234375 -17.556875 49.7421875 -17.84375 48.546875 C-18.5 45.3125 -18.5 45.3125 -18.5 41.3125 C-12.56 40.9825 -6.62 40.6525 -0.5 40.3125 C-0.83 39.3225 -1.16 38.3325 -1.5 37.3125 C-3.07201172 37.22162109 -3.07201172 37.22162109 -4.67578125 37.12890625 C-6.05470048 37.04448262 -7.43360605 36.95983553 -8.8125 36.875 C-9.50279297 36.83568359 -10.19308594 36.79636719 -10.90429688 36.75585938 C-13.97161535 36.56322585 -16.56968152 36.28927283 -19.5 35.3125 C-20.17862172 31.81471037 -20.84068889 28.31397657 -21.5 24.8125 C-21.69078125 23.83023438 -21.8815625 22.84796875 -22.078125 21.8359375 C-22.60738571 19.00061229 -23.07135562 16.16463378 -23.5 13.3125 C-23.6340625 12.54421875 -23.768125 11.7759375 -23.90625 10.984375 C-24.20496184 8.14661248 -24.04777642 6.01194686 -22.25585938 3.72387695 C-15.83988688 -1.2730437 -7.68584303 -0.23916726 0 0 Z " fill="#FBFBFB" transform="translate(347.5,220.6875)"/>
<path d="M0 0 C0.33 0 0.66 0 1 0 C1.04898438 0.62648437 1.09796875 1.25296875 1.1484375 1.8984375 C1.22320312 2.71570313 1.29796875 3.53296875 1.375 4.375 C1.44460937 5.18710938 1.51421875 5.99921875 1.5859375 6.8359375 C1.82892588 9.20334191 1.82892588 9.20334191 4 11 C7.9838046 12.28124697 12.0998403 12.33886065 16.25 12.5625 C16.99507812 12.60568359 17.74015625 12.64886719 18.5078125 12.69335938 C20.338349 12.79896725 22.16915176 12.89994201 24 13 C24 14.32 24 15.64 24 17 C21.65147472 18.17426264 20.26225935 18.11508173 17.6484375 18.09765625 C16.79765625 18.09443359 15.946875 18.09121094 15.0703125 18.08789062 C14.18085938 18.07951172 13.29140625 18.07113281 12.375 18.0625 C11.4778125 18.05798828 10.580625 18.05347656 9.65625 18.04882812 C7.43743352 18.03702591 5.21874982 18.02056155 3 18 C3.13712402 18.60835693 3.27424805 19.21671387 3.41552734 19.84350586 C3.5955127 20.64667236 3.77549805 21.44983887 3.9609375 22.27734375 C4.13931152 23.07132568 4.31768555 23.86530762 4.50146484 24.68334961 C5.09515025 27.4421551 5.57094505 30.21114284 6 33 C5.34 33 4.68 33 4 33 C3.34 33.66 2.68 34.32 2 35 C1.32663096 31.10529437 0.66248416 27.20907067 0 23.3125 C-0.19078125 22.20970703 -0.3815625 21.10691406 -0.578125 19.97070312 C-0.75859375 18.90400391 -0.9390625 17.83730469 -1.125 16.73828125 C-1.29257813 15.75899658 -1.46015625 14.77971191 -1.6328125 13.77075195 C-2.32258087 8.56584422 -1.83816138 4.94005872 0 0 Z " fill="#0F0F0F" transform="translate(181,244)"/>
<path d="M0 0 C0.66 0.33 1.32 0.66 2 1 C1.01 2.485 1.01 2.485 0 4 C-0.66 4 -1.32 4 -2 4 C-2 4.66 -2 5.32 -2 6 C-5.75899378 9.51647805 -9.71223057 12.66951441 -15 13 C-10.43369266 8.12927217 -5.25023461 4.10843602 0 0 Z " fill="#140001" transform="translate(103,40)"/>
<path d="M0 0 C0.66 0 1.32 0 2 0 C3.4606285 2.64738916 4 3.89448334 4 7 C4.66 7 5.32 7 6 7 C6.26554687 7.60328125 6.53109375 8.2065625 6.8046875 8.828125 C7.15789063 9.62734375 7.51109375 10.4265625 7.875 11.25 C8.39707031 12.43335938 8.39707031 12.43335938 8.9296875 13.640625 C9.95405348 15.99231522 9.95405348 15.99231522 11.1953125 18.109375 C12 20 12 20 11 23 C9.16002803 19.54515902 7.32916118 16.0855752 5.5 12.625 C4.97535156 11.64015625 4.45070313 10.6553125 3.91015625 9.640625 C3.16572266 8.22910156 3.16572266 8.22910156 2.40625 6.7890625 C1.94541016 5.91975098 1.48457031 5.05043945 1.00976562 4.15478516 C0 2 0 2 0 0 Z " fill="#1E0000" transform="translate(17,355)"/>
<path d="M0 0 C6.48707154 1.6813917 12.7677635 3.53062327 19 6 C12.12528898 8.07735833 5.97349607 4.19620828 0 1 C0 0.67 0 0.34 0 0 Z " fill="#190000" transform="translate(326,6)"/>
<path d="M0 0 C0 0.66 0 1.32 0 2 C-1.7578125 2.9765625 -3.515625 3.953125 -5.2734375 4.9296875 C-7.1612614 6.00897274 -7.1612614 6.00897274 -9 8 C-11 8 -11 8 -14 7 C-12.04480616 5.82807953 -10.0857461 4.6626071 -8.125 3.5 C-7.03445312 2.8503125 -5.94390625 2.200625 -4.8203125 1.53125 C-2 0 -2 0 0 0 Z " fill="#180000" transform="translate(133,23)"/>
<path d="M0 0 C1.84187025 2.76280538 2.72248277 4.80707826 3.6875 7.9375 C3.95949219 8.79214844 4.23148437 9.64679688 4.51171875 10.52734375 C5.02075548 13.10510574 4.84888744 14.54449337 4 17 C1.16625922 11.33251843 0.36776168 6.30267439 0 0 Z " fill="#1C0000" transform="translate(492,169)"/>
<path d="M0 0 C1.60031344 3.20062687 0.03173691 5.72271806 -1 9 C-2.65 9.33 -4.3 9.66 -6 10 C-4.6302836 6.00499382 -2.74277578 3.19990508 0 0 Z " fill="#140001" transform="translate(49,91)"/>
<path d="M0 0 C3.78699616 3.36621881 6.8272631 7.41641804 9 12 C8.67 12.66 8.34 13.32 8 14 C5.50447597 11.72402354 3.93377014 9.39278822 2.3125 6.4375 C1.87550781 5.65246094 1.43851562 4.86742188 0.98828125 4.05859375 C0 2 0 2 0 0 Z " fill="#1B0000" transform="translate(460,105)"/>
<path d="M0 0 C0.33 0.99 0.66 1.98 1 3 C0.0479279 4.00596297 -0.91187346 5.00461563 -1.875 6 C-2.40867187 6.556875 -2.94234375 7.11375 -3.4921875 7.6875 C-5 9 -5 9 -7 9 C-5.44499019 5.18315774 -2.96404505 2.80804268 0 0 Z " fill="#1A0000" transform="translate(65,73)"/>
<path d="M0 0 C1.18771723 3.42943519 0.80226223 5.37784675 -0.4375 8.75 C-0.86869141 9.94882812 -0.86869141 9.94882812 -1.30859375 11.171875 C-1.53675781 11.77515625 -1.76492188 12.3784375 -2 13 C-3.0625 11.1875 -3.0625 11.1875 -4 9 C-3.67 8.01 -3.34 7.02 -3 6 C-2.34 6 -1.68 6 -1 6 C-0.67 4.02 -0.34 2.04 0 0 Z " fill="#180001" transform="translate(495,318)"/>
<path d="M0 0 C3.98381075 2.16264012 6.88983545 4.71211176 10 8 C5.60249328 7.49259538 3.13051078 4.91706686 0 2 C0 1.34 0 0.68 0 0 Z " fill="#1C0000" transform="translate(406,48)"/>
<path d="M0 0 C0.33 0.66 0.66 1.32 1 2 C1.66 2 2.32 2 3 2 C3 2.66 3 3.32 3 4 C3.66 4.33 4.32 4.66 5 5 C-1.625 4.25 -1.625 4.25 -5 2 C-3.35 2 -1.7 2 0 2 C0 1.34 0 0.68 0 0 Z " fill="#180000" transform="translate(177,491)"/>
<path d="M0 0 C0 0.66 0 1.32 0 2 C-1.28745036 2.38922918 -2.58019597 2.76098036 -3.875 3.125 C-4.59429687 3.33382813 -5.31359375 3.54265625 -6.0546875 3.7578125 C-6.69664062 3.83773438 -7.33859375 3.91765625 -8 4 C-8.66 3.34 -9.32 2.68 -10 2 C-3.375 0 -3.375 0 0 0 Z " fill="#150001" transform="translate(192,1)"/>
<path d="" fill="#FF0000" transform="translate(0,0)"/>
<path d="" fill="#FF0000" transform="translate(0,0)"/>
<path d="" fill="#FF0000" transform="translate(0,0)"/>
<path d="" fill="#FF0000" transform="translate(0,0)"/>
<path d="" fill="#FF0000" transform="translate(0,0)"/>
<path d="" fill="#FF0000" transform="translate(0,0)"/>
<path d="" fill="#FF0000" transform="translate(0,0)"/>
<path d="" fill="#FF0000" transform="translate(0,0)"/>
<path d="" fill="#FF0000" transform="translate(0,0)"/>
<path d="" fill="#FF0000" transform="translate(0,0)"/>
<path d="" fill="#FF0000" transform="translate(0,0)"/>
<path d="" fill="#FF0000" transform="translate(0,0)"/>
<path d="" fill="#FF0000" transform="translate(0,0)"/>
<path d="" fill="#FF0000" transform="translate(0,0)"/>
<path d="" fill="#FF0000" transform="translate(0,0)"/>
</svg>
