<?xml version="1.0" encoding="UTF-8"?>
<svg version="1.1" xmlns="http://www.w3.org/2000/svg" width="500" height="500">
<path d="M0 0 C1.72629824 0.38919486 3.45284781 0.77727713 5.1796875 1.1640625 C45.16128511 10.53569416 83.00141317 31.06279888 113 59 C114.35006164 60.17141454 115.70407514 61.3382942 117.0625 62.5 C125.23826463 69.65789835 132.25763007 77.49441161 139 86 C139.87406123 87.07238043 140.7490929 88.14397048 141.625 89.21484375 C165.28413463 118.38752649 181.33709227 152.6370975 189.8125 189.1875 C189.99514404 189.96778564 190.17778809 190.74807129 190.3659668 191.55200195 C190.97698534 194.35930055 191.50029884 197.17051246 192 200 C192.12494843 200.70729248 192.24989685 201.41458496 192.37863159 202.14331055 C194.81781105 216.3411329 195.52651179 230.23557086 195.4375 244.625 C195.43293793 246.19723831 195.43293793 246.19723831 195.42828369 247.80123901 C195.3582345 264.16612994 194.59693801 279.97554602 191 296 C190.78037598 296.9909668 190.56075195 297.98193359 190.33447266 299.00292969 C188.79482135 305.74339891 186.99061824 312.37969559 185 319 C184.75975098 319.81388184 184.51950195 320.62776367 184.27197266 321.46630859 C175.82905428 349.43597656 161.13339575 376.18380425 143 399 C142.29617188 399.89589844 141.59234375 400.79179687 140.8671875 401.71484375 C134.92615951 409.13580524 128.52965314 416.0996467 122 423 C121.36191406 423.680625 120.72382813 424.36125 120.06640625 425.0625 C115.94270826 429.33453245 111.41367185 433.05284533 106.78515625 436.765625 C105.10968916 438.10975849 103.44645997 439.46967033 101.80859375 440.859375 C69.09053649 468.25123689 27.7116512 485.96703298 -14.2824707 492.55834961 C-16.09125284 492.85231124 -17.89507344 493.17865754 -19.69213867 493.53735352 C-31.1737879 495.66400851 -42.79901648 495.44076365 -54.4375 495.4375 C-55.57216705 495.43823517 -56.70683411 495.43897034 -57.87588501 495.43972778 C-76.07966557 495.40875123 -93.26125163 494.38380851 -111 490 C-112.03930664 489.74831055 -113.07861328 489.49662109 -114.14941406 489.23730469 C-146.44915793 481.16997941 -177.26351182 466.8130248 -204 447 C-204.63437988 446.53384277 -205.26875977 446.06768555 -205.92236328 445.58740234 C-221.99870749 433.67693565 -236.54033382 419.62434177 -249 404 C-249.87703605 402.92531737 -250.75465554 401.85111065 -251.6328125 400.77734375 C-258.78857863 391.94980164 -265.09610511 382.70636679 -271 373 C-271.42667969 372.2992334 -271.85335937 371.5984668 -272.29296875 370.87646484 C-288.3536912 344.12300757 -297.44418586 314.53999948 -303 284 C-303.18618896 283.1018457 -303.37237793 282.20369141 -303.56420898 281.27832031 C-305.73199568 269.64042201 -305.4388564 257.79601102 -305.4375 246 C-305.43889984 244.84170685 -305.44029968 243.6834137 -305.44174194 242.49002075 C-305.42379247 224.44174836 -304.34214119 207.57547828 -300 190 C-299.59972805 188.25012169 -299.19996238 186.50012747 -298.80078125 184.75 C-288.00512494 139.40283214 -263.85534063 100.60099504 -232 67 C-230.93265625 65.86884766 -230.93265625 65.86884766 -229.84375 64.71484375 C-224.61672524 59.32715224 -218.88324302 54.650785 -213 50 C-212.01128906 49.2059375 -211.02257812 48.411875 -210.00390625 47.59375 C-180.9777691 24.69172918 -146.89542544 8.70496112 -111 0 C-109.96601074 -0.2568457 -108.93202148 -0.51369141 -107.86669922 -0.77832031 C-73.6542406 -8.87539012 -34.08452029 -8.39386068 0 0 Z " fill="#000000" transform="translate(305,5)"/>
<path d="M0 0 C121.44 0 242.88 0 368 0 C368 39.27 368 78.54 368 119 C246.56 119 125.12 119 0 119 C0 79.73 0 40.46 0 0 Z " fill="#020202" transform="translate(66,196)"/>
<path d="M0 0 C121.44 0 242.88 0 368 0 C368 39.27 368 78.54 368 119 C246.56 119 125.12 119 0 119 C0 79.73 0 40.46 0 0 Z M4 4 C4 40.63 4 77.26 4 115 C122.8 115 241.6 115 364 115 C364 78.37 364 41.74 364 4 C245.2 4 126.4 4 4 4 Z " fill="#FEFEFE" transform="translate(66,196)"/>
<path d="M0 0 C7.92 0 15.84 0 24 0 C24 19.47 24 38.94 24 59 C16.41 59 8.82 59 1 59 C0.77213542 55.77734375 0.54427083 52.5546875 0.31640625 49.33203125 C0.04596188 46.48401829 -0.37521747 43.78789518 -1 41 C-1.99 41 -2.98 41 -4 41 C-4.33 46.94 -4.66 52.88 -5 59 C-12.59 59 -20.18 59 -28 59 C-28 39.86 -28 20.72 -28 1 C-20.41 1 -12.82 1 -5 1 C-4.505 9.415 -4.505 9.415 -4 18 C-2.68 18.33 -1.36 18.66 0 19 C0 12.73 0 6.46 0 0 Z " fill="#FAFAFA" transform="translate(112,220)"/>
<path d="M0 0 C7.26 0 14.52 0 22 0 C22.495 7.92 22.495 7.92 23 16 C24.32 16.33 25.64 16.66 27 17 C27.33 11.39 27.66 5.78 28 0 C35.59 0 43.18 0 51 0 C51 19.14 51 38.28 51 58 C43.41 58 35.82 58 28 58 C27.5625 50.625 27.5625 50.625 27.43188477 48.30712891 C27.23790296 44.52818684 27.23790296 44.52818684 26 41 C25.34 41 24.68 41 24 41 C22.47943501 44.04112998 22.6258839 47.28197797 22.4375 50.625 C22.293125 53.05875 22.14875 55.4925 22 58 C14.74 58 7.48 58 0 58 C0 38.86 0 19.72 0 0 Z " fill="#FEFEFE" transform="translate(366,221)"/>
<path d="M0 0 C0.99 0 1.98 0 3 0 C3.06058594 1.05960938 3.12117188 2.11921875 3.18359375 3.2109375 C3.26800127 4.59897221 3.35264917 5.98699232 3.4375 7.375 C3.47681641 8.07367188 3.51613281 8.77234375 3.55664062 9.4921875 C3.74280134 13.37360492 3.74280134 13.37360492 5 17 C5.99 17 6.98 17 8 17 C8.33 11.39 8.66 5.78 9 0 C16.92 0 24.84 0 33 0 C33 19.14 33 38.28 33 58 C25.08 58 17.16 58 9 58 C8.67 52.72 8.34 47.44 8 42 C6.515 41.505 6.515 41.505 5 41 C4.67 46.61 4.34 52.22 4 58 C-3.59 58 -11.18 58 -19 58 C-18.15480752 52.08365261 -17.49789785 49.41496081 -14.83984375 44.41015625 C-14.53051407 43.82076767 -14.22118439 43.23137909 -13.90248108 42.62413025 C-12.92386806 40.7649215 -11.93103485 38.91376972 -10.9375 37.0625 C-10.26661833 35.79412699 -9.59668713 34.52525077 -8.92773438 33.25585938 C-7.29609608 30.16468283 -5.65162421 27.08055395 -4 24 C-6.97 23.67 -9.94 23.34 -13 23 C-4.93247588 6.06706477 -4.93247588 6.06706477 0 0 Z " fill="#F9F9F9" transform="translate(249,221)"/>
<path d="M0 0 C0.79056793 0.00424484 1.58113586 0.00848969 2.3956604 0.01286316 C4.9021519 0.02955574 7.40781711 0.06718892 9.9140625 0.10546875 C11.62108208 0.12052783 13.32811435 0.13421409 15.03515625 0.14648438 C19.20343975 0.17942819 23.37111139 0.23114382 27.5390625 0.29296875 C27.25467298 2.18990736 26.96122458 4.08548902 26.6640625 5.98046875 C26.50164062 7.03621094 26.33921875 8.09195313 26.171875 9.1796875 C25.5390625 12.29296875 25.5390625 12.29296875 23.5390625 17.29296875 C13.6390625 17.78796875 13.6390625 17.78796875 3.5390625 18.29296875 C3.2090625 19.61296875 2.8790625 20.93296875 2.5390625 22.29296875 C3.57546875 22.26976562 4.611875 22.2465625 5.6796875 22.22265625 C7.04947194 22.20389208 8.4192642 22.18569257 9.7890625 22.16796875 C10.47097656 22.15121094 11.15289062 22.13445312 11.85546875 22.1171875 C15.92443327 22.07768299 17.78805571 22.41746536 21.5390625 24.29296875 C20.8790625 27.59296875 20.2190625 30.89296875 19.5390625 34.29296875 C22.1790625 34.29296875 24.8190625 34.29296875 27.5390625 34.29296875 C27.62616539 37.39695853 27.67948559 40.50063423 27.7265625 43.60546875 C27.75169922 44.48654297 27.77683594 45.36761719 27.80273438 46.27539062 C27.81240234 47.12294922 27.82207031 47.97050781 27.83203125 48.84375 C27.8477417 49.62403564 27.86345215 50.40432129 27.87963867 51.20825195 C27.43870167 53.90729211 26.71351163 54.66057851 24.5390625 56.29296875 C20.42242108 58.45952738 16.87652078 58.52619886 12.26953125 58.48828125 C11.58852859 58.48545135 10.90752594 58.48262146 10.20588684 58.47970581 C8.04592795 58.468574 5.88639456 58.44348332 3.7265625 58.41796875 C2.25586539 58.40792986 0.78516174 58.3988056 -0.68554688 58.390625 C-4.27748036 58.36865788 -7.86916735 58.33417695 -11.4609375 58.29296875 C-11.96327723 55.83509219 -12.46290607 53.37671851 -12.9609375 50.91796875 C-13.17556641 49.86996094 -13.17556641 49.86996094 -13.39453125 48.80078125 C-14.4609375 43.51953125 -14.4609375 43.51953125 -14.4609375 41.29296875 C-4.0659375 40.79796875 -4.0659375 40.79796875 6.5390625 40.29296875 C6.5390625 38.97296875 6.5390625 37.65296875 6.5390625 36.29296875 C4.89357422 36.32777344 4.89357422 36.32777344 3.21484375 36.36328125 C1.7604235 36.38204796 0.30599586 36.40024719 -1.1484375 36.41796875 C-1.86966797 36.43472656 -2.59089844 36.45148438 -3.33398438 36.46875 C-7.50284868 36.50682182 -10.75409918 36.25986255 -14.4609375 34.29296875 C-17.66474647 31.08915978 -17.41162867 27.06170324 -18 22.6875 C-18.27305034 20.67664621 -18.58582307 18.66947287 -18.984375 16.6796875 C-19.74767946 12.51031691 -19.75254265 10.03966898 -17.3984375 6.41796875 C-12.92971306 0.50725974 -6.85941835 -0.14039905 0 0 Z " fill="#FAFAFA" transform="translate(198.4609375,220.70703125)"/>
<path d="M0 0 C11.55 0 23.1 0 35 0 C35.48210937 2.75988281 35.96421875 5.51976562 36.4609375 8.36328125 C36.93415507 11.0707351 37.40750126 13.77816643 37.88085938 16.4855957 C38.20683986 18.35048112 38.53268909 20.21538948 38.85839844 22.08032227 C39.17475888 23.89163139 39.49134533 25.70290105 39.8081665 27.51412964 C40.11734164 29.2828118 40.42573713 31.05163043 40.7333374 32.82058716 C41.64994362 38.07471166 42.61256022 43.31580176 43.68994141 48.53979492 C44.12611581 52.00068424 44 55.51173353 44 59 C34.1 59 24.2 59 14 59 C14 53.22209771 14.05676146 48.54152641 15 43 C17.97 42.505 17.97 42.505 21 42 C20.34 34.41 19.68 26.82 19 19 C18.01 19.33 17.02 19.66 16 20 C15.84180786 20.91942383 15.84180786 20.91942383 15.68041992 21.85742188 C13.54401611 34.2562147 11.36737595 46.64301492 9 59 C6.03 59 3.06 59 0 59 C0 39.53 0 20.06 0 0 Z " fill="#F7F7F7" transform="translate(139,220)"/>
<path d="M0 0 C11.22 0 22.44 0 34 0 C34.48210937 2.68769531 34.96421875 5.37539062 35.4609375 8.14453125 C35.93421414 10.7824762 36.40753472 13.42041327 36.88085938 16.05834961 C37.20675155 17.87474764 37.53259891 19.69115371 37.85839844 21.50756836 C38.17483414 23.27174591 38.49142161 25.03589625 38.8081665 26.80001831 C39.11742894 28.52457324 39.42582451 30.24928385 39.7333374 31.97415161 C40.66129926 37.16874142 41.63022086 42.35258952 42.68994141 47.5222168 C43.12379655 50.98930018 43 54.50587672 43 58 C33.1 58 23.2 58 13 58 C13 47 13 47 14 42 C16.97 41.505 16.97 41.505 20 41 C19.34 33.41 18.68 25.82 18 18 C17.01 18.33 16.02 18.66 15 19 C14.84180786 19.91942383 14.84180786 19.91942383 14.68041992 20.85742188 C12.54401611 33.2562147 10.36737595 45.64301492 8 58 C5.36 58 2.72 58 0 58 C0 38.86 0 19.72 0 0 Z " fill="#FBFBFB" transform="translate(285,221)"/>
<path d="M0 0 C1.40881444 0.02512267 2.8176722 0.04792883 4.2265625 0.06835938 C7.65150643 0.12700568 11.07589456 0.21667615 14.5 0.3125 C14.5 5.9225 14.5 11.5325 14.5 17.3125 C8.56 17.6425 2.62 17.9725 -3.5 18.3125 C-3.83 19.6325 -4.16 20.9525 -4.5 22.3125 C-3.54738281 22.28929687 -2.59476562 22.26609375 -1.61328125 22.2421875 C-0.35902344 22.22414062 0.89523437 22.20609375 2.1875 22.1875 C3.42886719 22.16429687 4.67023438 22.14109375 5.94921875 22.1171875 C9.5 22.3125 9.5 22.3125 14.5 24.3125 C14.5 35.2025 14.5 46.0925 14.5 57.3125 C11.68175808 58.72162096 9.32748718 58.42433553 6.1796875 58.41015625 C4.92285156 58.40693359 3.66601562 58.40371094 2.37109375 58.40039062 C1.05238281 58.39201172 -0.26632812 58.38363281 -1.625 58.375 C-2.96484211 58.36998489 -4.304686 58.36542201 -5.64453125 58.36132812 C-8.92973206 58.34951086 -12.21484397 58.33303617 -15.5 58.3125 C-16.00546036 56.23048472 -16.50416835 54.14682933 -17 52.0625 C-17.2784375 50.90234375 -17.556875 49.7421875 -17.84375 48.546875 C-18.5 45.3125 -18.5 45.3125 -18.5 41.3125 C-12.56 40.9825 -6.62 40.6525 -0.5 40.3125 C-0.83 39.3225 -1.16 38.3325 -1.5 37.3125 C-3.07201172 37.22162109 -3.07201172 37.22162109 -4.67578125 37.12890625 C-6.05470048 37.04448262 -7.43360605 36.95983553 -8.8125 36.875 C-9.50279297 36.83568359 -10.19308594 36.79636719 -10.90429688 36.75585938 C-13.97161535 36.56322585 -16.56968152 36.28927283 -19.5 35.3125 C-20.17862172 31.81471037 -20.84068889 28.31397657 -21.5 24.8125 C-21.69078125 23.83023438 -21.8815625 22.84796875 -22.078125 21.8359375 C-22.60738571 19.00061229 -23.07135562 16.16463378 -23.5 13.3125 C-23.6340625 12.54421875 -23.768125 11.7759375 -23.90625 10.984375 C-24.20496184 8.14661248 -24.04777642 6.01194686 -22.25585938 3.72387695 C-15.83988688 -1.2730437 -7.68584303 -0.23916726 0 0 Z " fill="#FBFBFB" transform="translate(347.5,220.6875)"/>
<path d="M0 0 C0.33 0 0.66 0 1 0 C1.04898438 0.62648437 1.09796875 1.25296875 1.1484375 1.8984375 C1.22320312 2.71570313 1.29796875 3.53296875 1.375 4.375 C1.44460937 5.18710938 1.51421875 5.99921875 1.5859375 6.8359375 C1.82892588 9.20334191 1.82892588 9.20334191 4 11 C7.9838046 12.28124697 12.0998403 12.33886065 16.25 12.5625 C16.99507812 12.60568359 17.74015625 12.64886719 18.5078125 12.69335938 C20.338349 12.79896725 22.16915176 12.89994201 24 13 C24 14.32 24 15.64 24 17 C21.65147472 18.17426264 20.26225935 18.11508173 17.6484375 18.09765625 C16.79765625 18.09443359 15.946875 18.09121094 15.0703125 18.08789062 C14.18085938 18.07951172 13.29140625 18.07113281 12.375 18.0625 C11.4778125 18.05798828 10.580625 18.05347656 9.65625 18.04882812 C7.43743352 18.03702591 5.21874982 18.02056155 3 18 C3.13712402 18.60835693 3.27424805 19.21671387 3.41552734 19.84350586 C3.5955127 20.64667236 3.77549805 21.44983887 3.9609375 22.27734375 C4.13931152 23.07132568 4.31768555 23.86530762 4.50146484 24.68334961 C5.09515025 27.4421551 5.57094505 30.21114284 6 33 C5.34 33 4.68 33 4 33 C3.34 33.66 2.68 34.32 2 35 C1.32663096 31.10529437 0.66248416 27.20907067 0 23.3125 C-0.19078125 22.20970703 -0.3815625 21.10691406 -0.578125 19.97070312 C-0.75859375 18.90400391 -0.9390625 17.83730469 -1.125 16.73828125 C-1.29257813 15.75899658 -1.46015625 14.77971191 -1.6328125 13.77075195 C-2.32258087 8.56584422 -1.83816138 4.94005872 0 0 Z " fill="#0F0F0F" transform="translate(181,244)"/>
<path d="M0 0 C2.85066352 1.42533176 2.91803151 3.08597954 3.9375 6.0625 C4.28425781 7.05636719 4.63101562 8.05023438 4.98828125 9.07421875 C5.32214844 10.03972656 5.65601563 11.00523437 6 12 C7.33568297 15.64110837 8.67424313 19.26704704 10.25 22.8125 C11 25 11 25 10 28 C8.69522873 25.02640904 7.40870955 22.04523689 6.125 19.0625 C5.57779297 17.81629883 5.57779297 17.81629883 5.01953125 16.54492188 C2.67672948 11.07128501 1.12151953 5.84960978 0 0 Z " fill="#1C0000" transform="translate(12,327)"/>
<path d="M0 0 C3.625 0.375 3.625 0.375 7 1 C0.55014562 4.52888584 -6.74446344 5.31545811 -14 5 C-11.08922107 2.08922107 -8.2942347 2.5752462 -4.3125 2.34375 C-1.80924417 2.20621321 -1.80924417 2.20621321 0 0 Z " fill="#170000" transform="translate(302,492)"/>
<path d="M0 0 C2.31 0.33 4.62 0.66 7 1 C4.01243632 2.99170912 1.44575614 4.02907979 -1.9375 5.1875 C-2.97777344 5.55230469 -4.01804687 5.91710937 -5.08984375 6.29296875 C-7.95456052 6.98896034 -9.28981357 7.02529944 -12 6 C-10.73160474 5.49384702 -9.46016898 4.99530901 -8.1875 4.5 C-7.12595703 4.08234375 -7.12595703 4.08234375 -6.04296875 3.65625 C-4 3 -4 3 -1 3 C-0.67 2.01 -0.34 1.02 0 0 Z " fill="#1A0000" transform="translate(329,484)"/>
<path d="M0 0 C0.66 0 1.32 0 2 0 C1.51679152 6.2054142 0.66681876 11.99945246 -1 18 C-1.33 18 -1.66 18 -2 18 C-2.66 15.69 -3.32 13.38 -4 11 C-2.68 10.34 -1.36 9.68 0 9 C0 6.03 0 3.06 0 0 Z " fill="#160000" transform="translate(495,291)"/>
<path d="M0 0 C0.66 0.33 1.32 0.66 2 1 C1.443125 1.27457031 0.88625 1.54914062 0.3125 1.83203125 C-1.28351542 2.63812688 -2.86635424 3.4706636 -4.4375 4.32421875 C-5.283125 4.77410156 -6.12875 5.22398438 -7 5.6875 C-7.845625 6.14511719 -8.69125 6.60273438 -9.5625 7.07421875 C-12.32727939 8.12430323 -13.25659627 7.82831363 -16 7 C-13.3789879 5.80293183 -10.75385304 4.61711354 -8.125 3.4375 C-7.00544922 2.92413086 -7.00544922 2.92413086 -5.86328125 2.40039062 C-3.93450668 1.54026143 -1.9688967 0.76383202 0 0 Z " fill="#160000" transform="translate(157,17)"/>
<path d="M0 0 C-2.38246339 2.68125418 -4.8545504 4.11423459 -8.0625 5.6875 C-8.94035156 6.12449219 -9.81820313 6.56148438 -10.72265625 7.01171875 C-13 8 -13 8 -15 8 C-15 7.34 -15 6.68 -15 6 C-14.195625 5.71125 -13.39125 5.4225 -12.5625 5.125 C-9.8673532 4.26737432 -9.8673532 4.26737432 -9 2 C-5.93853104 0.03191281 -3.59835033 -0.19990835 0 0 Z " fill="#1B0000" transform="translate(372,468)"/>
<path d="M0 0 C0.578125 1.91796875 0.578125 1.91796875 1 4 C0.0246803 5.02408568 -0.98198643 6.01834406 -2 7 C-3.14472883 9.28945765 -4.05554302 11.61637049 -5 14 C-5.66 14 -6.32 14 -7 14 C-5.53967505 8.68972746 -3.01679014 4.53669968 0 0 Z " fill="#190000" transform="translate(36,119)"/>
<path d="M0 0 C2.31 0.33 4.62 0.66 7 1 C3.63576723 3.96052484 0.30840713 4.92289822 -4 6 C-4 5.34 -4 4.68 -4 4 C-3.34 4 -2.68 4 -2 4 C-2 3.34 -2 2.68 -2 2 C-1.34 2 -0.68 2 0 2 C0 1.34 0 0.68 0 0 Z " fill="#1A0001" transform="translate(350,475)"/>
<path d="M0 0 C4.85967024 2.50346649 8.27856704 6.08552441 12 10 C8.45595664 10 7.89732095 9.39010515 5.3125 7.125 C4.68988281 6.59132813 4.06726563 6.05765625 3.42578125 5.5078125 C2 4 2 4 2 2 C1.34 2 0.68 2 0 2 C0 1.34 0 0.68 0 0 Z " fill="#180000" transform="translate(417,64)"/>
<path d="M0 0 C0.66 0 1.32 0 2 0 C2.09038099 5.15171623 1.84681133 9.91913204 1 15 C0.67 15 0.34 15 0 15 C-0.19517554 13.06325815 -0.38087873 11.12555991 -0.5625 9.1875 C-0.66691406 8.10855469 -0.77132813 7.02960938 -0.87890625 5.91796875 C-1 3 -1 3 0 0 Z " fill="#170000" transform="translate(497,274)"/>
<path d="M0 0 C0.33 0 0.66 0 1 0 C1.33 4.95 1.66 9.9 2 15 C1.01 15 0.02 15 -1 15 C-0.67 10.05 -0.34 5.1 0 0 Z " fill="#190000" transform="translate(497,211)"/>
<path d="M0 0 C2.31459868 1.81817001 2.95377187 2.75615543 3.51171875 5.69921875 C3.56972656 6.68535156 3.62773437 7.67148437 3.6875 8.6875 C3.75324219 9.68136719 3.81898437 10.67523438 3.88671875 11.69921875 C3.92410156 12.45847656 3.96148437 13.21773438 4 14 C1.01520806 9.52281208 0 5.36175907 0 0 Z " fill="#1A0000" transform="translate(8,313)"/>
<path d="M0 0 C0.33 0 0.66 0 1 0 C1.2493357 1.60115576 1.47378648 3.20620159 1.6875 4.8125 C1.87892578 6.15248047 1.87892578 6.15248047 2.07421875 7.51953125 C2 10 2 10 -1 13 C-0.67 8.71 -0.34 4.42 0 0 Z " fill="#150000" transform="translate(2,211)"/>
<path d="M0 0 C3.96 0.33 7.92 0.66 12 1 C12 1.33 12 1.66 12 2 C6.06 2.495 6.06 2.495 0 3 C0 2.01 0 1.02 0 0 Z " fill="#180000" transform="translate(276,496)"/>
<path d="M0 0 C0.66 0 1.32 0 2 0 C0.50902342 3.7952131 -1.75700849 5.61042731 -5 8 C-4.75 6.125 -4.75 6.125 -4 4 C-1.9375 2.75 -1.9375 2.75 0 2 C0 1.34 0 0.68 0 0 Z " fill="#180000" transform="translate(433,418)"/>
<path d="M0 0 C4.16138263 -0.08159574 7.9472484 0.01751476 12 1 C12 1.33 12 1.66 12 2 C8.7 2.33 5.4 2.66 2 3 C1.34 2.01 0.68 1.02 0 0 Z " fill="#160000" transform="translate(288,3)"/>
<path d="M0 0 C0 3.93169105 -1.39419615 5.16427228 -4 8 C-4.66 8 -5.32 8 -6 8 C-4.55746343 4.63408134 -2.66735273 2.48952921 0 0 Z " fill="#190000" transform="translate(64,82)"/>
<path d="M0 0 C0.33 0.66 0.66 1.32 1 2 C-1.57784846 4.64752004 -3.91648098 6.94432065 -7 9 C-5.44499019 5.18315774 -2.96404505 2.80804268 0 0 Z " fill="#1A0000" transform="translate(73,72)"/>
<path d="M0 0 C0.66 0 1.32 0 2 0 C4.1875 2.75 4.1875 2.75 6 6 C5.67 7.32 5.34 8.64 5 10 C3.35 6.7 1.7 3.4 0 0 Z " fill="#1F0000" transform="translate(29,368)"/>
<path d="M0 0 C-1.33332095 3.99996286 -3.4957827 4.83782337 -7 7 C-7.66 6.67 -8.32 6.34 -9 6 C-7.8803014 4.99406757 -6.7540588 3.9954151 -5.625 3 C-4.68527344 2.1646875 -4.68527344 2.1646875 -3.7265625 1.3125 C-2 0 -2 0 0 0 Z " fill="#1C0000" transform="translate(96,53)"/>
<path d="" fill="#FF0000" transform="translate(0,0)"/>
<path d="" fill="#FF0000" transform="translate(0,0)"/>
<path d="" fill="#FF0000" transform="translate(0,0)"/>
<path d="" fill="#FF0000" transform="translate(0,0)"/>
<path d="" fill="#FF0000" transform="translate(0,0)"/>
<path d="" fill="#FF0000" transform="translate(0,0)"/>
<path d="" fill="#FF0000" transform="translate(0,0)"/>
<path d="" fill="#FF0000" transform="translate(0,0)"/>
<path d="" fill="#FF0000" transform="translate(0,0)"/>
<path d="" fill="#FF0000" transform="translate(0,0)"/>
<path d="" fill="#FF0000" transform="translate(0,0)"/>
<path d="" fill="#FF0000" transform="translate(0,0)"/>
<path d="" fill="#FF0000" transform="translate(0,0)"/>
<path d="" fill="#FF0000" transform="translate(0,0)"/>
<path d="" fill="#FF0000" transform="translate(0,0)"/>
<path d="" fill="#FF0000" transform="translate(0,0)"/>
<path d="" fill="#FF0000" transform="translate(0,0)"/>
<path d="" fill="#FF0000" transform="translate(0,0)"/>
<path d="" fill="#FF0000" transform="translate(0,0)"/>
</svg>
